<mxfile host="app.diagrams.net" modified="2020-12-24T12:02:45.156Z" agent="5.0 (Windows NT 10.0; Win64; x64) AppleWebKit/537.36 (KHTML, like Gecko) Chrome/89.0.4356.0 Safari/537.36 Edg/89.0.744.0" etag="614Rx4ILhcMSNIm7daVk" version="14.1.2" type="github">
  <diagram id="prtHgNgQTEPvFCAcTncT" name="Page-1">
    <mxGraphModel dx="1422" dy="794" grid="1" gridSize="10" guides="1" tooltips="1" connect="1" arrows="1" fold="1" page="1" pageScale="1" pageWidth="827" pageHeight="1169" math="0" shadow="0">
      <root>
        <mxCell id="0" />
        <mxCell id="1" parent="0" />
        <mxCell id="W0bt_le1wNvd-5BkMtdr-3" value="Pool" style="swimlane;html=1;childLayout=stackLayout;resizeParent=1;resizeParentMax=0;startSize=20;" vertex="1" parent="1">
          <mxGeometry y="20" width="1020" height="640" as="geometry" />
        </mxCell>
        <mxCell id="W0bt_le1wNvd-5BkMtdr-4" value="支线流程" style="swimlane;html=1;startSize=20;" vertex="1" parent="W0bt_le1wNvd-5BkMtdr-3">
          <mxGeometry y="20" width="330" height="620" as="geometry">
            <mxRectangle y="20" width="30" height="620" as="alternateBounds" />
          </mxGeometry>
        </mxCell>
        <mxCell id="W0bt_le1wNvd-5BkMtdr-5" value="主干流程" style="swimlane;html=1;startSize=20;" vertex="1" parent="W0bt_le1wNvd-5BkMtdr-3">
          <mxGeometry x="330" y="20" width="290" height="620" as="geometry" />
        </mxCell>
        <mxCell id="W0bt_le1wNvd-5BkMtdr-8" value="创建卡券" style="shape=ext;rounded=1;html=1;whiteSpace=wrap;" vertex="1" parent="W0bt_le1wNvd-5BkMtdr-5">
          <mxGeometry x="84" y="50" width="106" height="50" as="geometry" />
        </mxCell>
        <mxCell id="W0bt_le1wNvd-5BkMtdr-12" value="管理卡券" style="shape=ext;rounded=1;html=1;whiteSpace=wrap;" vertex="1" parent="W0bt_le1wNvd-5BkMtdr-5">
          <mxGeometry x="84" y="490" width="106" height="50" as="geometry" />
        </mxCell>
        <mxCell id="W0bt_le1wNvd-5BkMtdr-11" value="核销卡券" style="shape=ext;rounded=1;html=1;whiteSpace=wrap;" vertex="1" parent="W0bt_le1wNvd-5BkMtdr-5">
          <mxGeometry x="84" y="300" width="106" height="50" as="geometry" />
        </mxCell>
        <mxCell id="W0bt_le1wNvd-5BkMtdr-10" value="投放卡券" style="shape=ext;rounded=1;html=1;whiteSpace=wrap;" vertex="1" parent="W0bt_le1wNvd-5BkMtdr-5">
          <mxGeometry x="84" y="160" width="106" height="50" as="geometry" />
        </mxCell>
        <mxCell id="W0bt_le1wNvd-5BkMtdr-6" value="分解步骤" style="swimlane;html=1;startSize=20;" vertex="1" parent="W0bt_le1wNvd-5BkMtdr-3">
          <mxGeometry x="620" y="20" width="400" height="620" as="geometry" />
        </mxCell>
      </root>
    </mxGraphModel>
  </diagram>
</mxfile>
